<?xml version="1.0" encoding="UTF-8" standalone="no"?>
<svg
   xmlns:dc="http://purl.org/dc/elements/1.1/"
   xmlns:cc="http://creativecommons.org/ns#"
   xmlns:rdf="http://www.w3.org/1999/02/22-rdf-syntax-ns#"
   xmlns:svg="http://www.w3.org/2000/svg"
   xmlns="http://www.w3.org/2000/svg"
   version="1.1"
   id="svg2"
   xml:space="preserve"
   width="255.66533"
   height="377.22134"
   viewBox="0 0 255.66533 377.22134"><metadata
     id="metadata8"><rdf:RDF><cc:Work
         rdf:about=""><dc:format>image/svg+xml</dc:format><dc:type
           rdf:resource="http://purl.org/dc/dcmitype/StillImage" /></cc:Work></rdf:RDF></metadata><defs
     id="defs6" /><g
     id="g10"
     transform="matrix(1.3333333,0,0,-1.3333333,0,377.22133)"><g
       id="g12"
       transform="translate(95.875,268.344)"><g
         id="g14"><g
           id="g16"><g
             id="g18"><g
               id="g20"><path
                 d="M 14.17339,0 C 14.17339,7.82784 7.82784,14.17339 0,14.17339 -7.82784,14.17339 -14.17339,7.82784 -14.17339,0 c 0,-7.82784 6.34555,-14.17339 14.17339,-14.17339 7.82784,0 14.17339,6.34555 14.17339,14.17339 z"
                 style="fill:none;stroke:#333333;stroke-width:0.79701;stroke-linecap:butt;stroke-linejoin:miter;stroke-miterlimit:10;stroke-dasharray:none;stroke-opacity:1"
                 id="path22" /></g><g
               id="g24"><g
                 id="g26" /></g></g><g
             id="g28"><g
               id="g30"
               transform="translate(-3.342,-3.404)"><g
                 id="g32"><g
                   id="g34"
                   transform="translate(-92.533,-264.94)"><text
                     transform="matrix(1,0,0,-1,92.533,264.94)"
                     style="font-variant:normal;font-weight:normal;font-size:9.9626px;font-family:CMMI10;-inkscape-font-specification:CMMI10;writing-mode:lr-tb;fill:#000000;fill-opacity:1;fill-rule:nonzero;stroke:none"
                     id="text38"><tspan
                       x="0"
                       y="0"
                       id="tspan36">S</tspan></text><g
                     id="g40"
                     transform="translate(92.533,264.94)" /></g></g><g
                 id="g42"
                 transform="translate(3.342,3.404)" /></g></g><g
             id="g44"><g
               id="g46"><path
                 d="m 14.17339,-57.4906 c 0,7.82783 -6.34555,14.17339 -14.17339,14.17339 -7.82784,0 -14.17339,-6.34556 -14.17339,-14.17339 0,-7.82785 6.34555,-14.1734 14.17339,-14.1734 7.82784,0 14.17339,6.34555 14.17339,14.1734 z"
                 style="fill:none;stroke:#333333;stroke-width:0.79701;stroke-linecap:butt;stroke-linejoin:miter;stroke-miterlimit:10;stroke-dasharray:none;stroke-opacity:1"
                 id="path48" /></g><g
               id="g50"
               transform="translate(0,-57.49)"><g
                 id="g52" /><g
                 id="g54"
                 transform="translate(0,57.49)" /></g></g><g
             id="g56"><g
               id="g58"
               transform="translate(-3.89,-60.893)"><g
                 id="g60"><g
                   id="g62"
                   transform="translate(-91.985,-207.451)"><text
                     transform="matrix(1,0,0,-1,91.985,207.451)"
                     style="font-variant:normal;font-weight:normal;font-size:9.9626px;font-family:CMMI10;-inkscape-font-specification:CMMI10;writing-mode:lr-tb;fill:#000000;fill-opacity:1;fill-rule:nonzero;stroke:none"
                     id="text66"><tspan
                       x="0"
                       y="0"
                       id="tspan64">P</tspan></text><g
                     id="g68"
                     transform="translate(91.985,207.451)" /></g></g><g
                 id="g70"
                 transform="translate(3.89,60.893)" /></g></g><g
             id="g72"><g
               id="g74"><path
                 d="m -26.47864,-98.14264 c 0,7.82785 -6.34553,14.1734 -14.17338,14.1734 -7.82785,0 -14.1734,-6.34555 -14.1734,-14.1734 0,-7.82785 6.34555,-14.1734 14.1734,-14.1734 7.82785,0 14.17338,6.34555 14.17338,14.1734 z"
                 style="fill:none;stroke:#333333;stroke-width:0.79701;stroke-linecap:butt;stroke-linejoin:miter;stroke-miterlimit:10;stroke-dasharray:none;stroke-opacity:1"
                 id="path76" /></g><g
               id="g78"
               transform="translate(-40.652,-98.141)"><g
                 id="g80" /><g
                 id="g82"
                 transform="translate(40.652,98.141)" /></g></g><g
             id="g84"><g
               id="g86"
               transform="translate(-44.042,-101.545)"><g
                 id="g88"><g
                   id="g90"
                   transform="translate(-51.833,-166.799)"><text
                     transform="matrix(1,0,0,-1,51.833,166.799)"
                     style="font-variant:normal;font-weight:normal;font-size:9.9626px;font-family:CMMI10;-inkscape-font-specification:CMMI10;writing-mode:lr-tb;fill:#000000;fill-opacity:1;fill-rule:nonzero;stroke:none"
                     id="text94"><tspan
                       x="0"
                       y="0"
                       id="tspan92">L</tspan></text><g
                     id="g96"
                     transform="translate(51.833,166.799)" /></g></g><g
                 id="g98"
                 transform="translate(44.042,101.545)" /></g></g><g
             id="g100"><g
               id="g102"><path
                 d="m 54.82542,-98.14264 c 0,7.82785 -6.34555,14.1734 -14.1734,14.1734 -7.82785,0 -14.17338,-6.34555 -14.17338,-14.1734 0,-7.82785 6.34553,-14.1734 14.17338,-14.1734 7.82785,0 14.1734,6.34555 14.1734,14.1734 z"
                 style="fill:none;stroke:#333333;stroke-width:0.79701;stroke-linecap:butt;stroke-linejoin:miter;stroke-miterlimit:10;stroke-dasharray:none;stroke-opacity:1"
                 id="path104" /></g><g
               id="g106"
               transform="translate(40.651,-98.141)"><g
                 id="g108" /><g
                 id="g110"
                 transform="translate(-40.651,98.141)" /></g></g><g
             id="g112"><g
               id="g114"
               transform="translate(38.071,-101.545)"><g
                 id="g116"><g
                   id="g118"
                   transform="translate(-133.946,-166.799)"><text
                     transform="matrix(1,0,0,-1,133.946,166.799)"
                     style="font-variant:normal;font-weight:normal;font-size:9.9626px;font-family:CMMI10;-inkscape-font-specification:CMMI10;writing-mode:lr-tb;fill:#000000;fill-opacity:1;fill-rule:nonzero;stroke:none"
                     id="text122"><tspan
                       x="0"
                       y="0"
                       id="tspan120">I</tspan></text><g
                     id="g124"
                     transform="translate(133.946,166.799)" /></g></g><g
                 id="g126"
                 transform="translate(-38.071,101.545)" /></g></g><g
             id="g128"><g
               id="g130"><path
                 d="m 14.17339,-138.79468 c 0,7.82785 -6.34555,14.1734 -14.17339,14.1734 -7.82784,0 -14.17339,-6.34555 -14.17339,-14.1734 0,-7.82785 6.34555,-14.1734 14.17339,-14.1734 7.82784,0 14.17339,6.34555 14.17339,14.1734 z"
                 style="fill:none;stroke:#333333;stroke-width:0.79701;stroke-linecap:butt;stroke-linejoin:miter;stroke-miterlimit:10;stroke-dasharray:none;stroke-opacity:1"
                 id="path132" /></g><g
               id="g134"
               transform="translate(0,-138.793)"><g
                 id="g136" /><g
                 id="g138"
                 transform="translate(0,138.793)" /></g></g><g
             id="g140"><g
               id="g142"
               transform="translate(-3.965,-142.196)"><g
                 id="g144"><g
                   id="g146"
                   transform="translate(-91.91,-126.148)"><text
                     transform="matrix(1,0,0,-1,91.91,126.148)"
                     style="font-variant:normal;font-weight:normal;font-size:9.9626px;font-family:CMMI10;-inkscape-font-specification:CMMI10;writing-mode:lr-tb;fill:#000000;fill-opacity:1;fill-rule:nonzero;stroke:none"
                     id="text150"><tspan
                       x="0"
                       y="0"
                       id="tspan148">E</tspan></text><g
                     id="g152"
                     transform="translate(91.91,126.148)" /></g></g><g
                 id="g154"
                 transform="translate(3.965,142.196)" /></g></g><g
             id="g156"><g
               id="g158"><path
                 d="m 95.47746,-138.79468 c 0,7.82785 -6.34555,14.1734 -14.1734,14.1734 -7.82785,0 -14.1734,-6.34555 -14.1734,-14.1734 0,-7.82785 6.34555,-14.1734 14.1734,-14.1734 7.82785,0 14.1734,6.34555 14.1734,14.1734 z"
                 style="fill:none;stroke:#333333;stroke-width:0.79701;stroke-linecap:butt;stroke-linejoin:miter;stroke-miterlimit:10;stroke-dasharray:none;stroke-opacity:1"
                 id="path160" /></g><g
               id="g162"
               transform="translate(81.303,-138.793)"><g
                 id="g164" /><g
                 id="g166"
                 transform="translate(-81.303,138.793)" /></g></g><g
             id="g168"><g
               id="g170"
               transform="translate(77.29,-142.196)"><g
                 id="g172"><g
                   id="g174"
                   transform="translate(-173.165,-126.148)"><text
                     transform="matrix(1,0,0,-1,173.165,126.148)"
                     style="font-variant:normal;font-weight:normal;font-size:9.9626px;font-family:CMMI10;-inkscape-font-specification:CMMI10;writing-mode:lr-tb;fill:#000000;fill-opacity:1;fill-rule:nonzero;stroke:none"
                     id="text178"><tspan
                       x="0"
                       y="0"
                       id="tspan176">V</tspan></text><g
                     id="g180"
                     transform="translate(173.165,126.148)" /></g></g><g
                 id="g182"
                 transform="translate(-77.29,142.196)" /></g></g><g
             id="g184"><g
               id="g186"><path
                 d="m 14.17339,-196.2853 c 0,7.82786 -6.34555,14.1734 -14.17339,14.1734 -7.82784,0 -14.17339,-6.34554 -14.17339,-14.1734 0,-7.82784 6.34555,-14.1734 14.17339,-14.1734 7.82784,0 14.17339,6.34556 14.17339,14.1734 z"
                 style="fill:none;stroke:#333333;stroke-width:0.79701;stroke-linecap:butt;stroke-linejoin:miter;stroke-miterlimit:10;stroke-dasharray:none;stroke-opacity:1"
                 id="path188" /></g><g
               id="g190"
               transform="translate(0,-196.282)"><g
                 id="g192" /><g
                 id="g194"
                 transform="translate(0,196.282)" /></g></g><g
             id="g196"><g
               id="g198"
               transform="translate(-3.938,-199.686)"><g
                 id="g200"><g
                   id="g202"
                   transform="translate(-91.937,-68.658)"><text
                     transform="matrix(1,0,0,-1,91.937,68.658)"
                     style="font-variant:normal;font-weight:normal;font-size:9.9626px;font-family:CMMI10;-inkscape-font-specification:CMMI10;writing-mode:lr-tb;fill:#000000;fill-opacity:1;fill-rule:nonzero;stroke:none"
                     id="text206"><tspan
                       x="0"
                       y="0"
                       id="tspan204">O</tspan></text><g
                     id="g208"
                     transform="translate(91.937,68.658)" /></g></g><g
                 id="g210"
                 transform="translate(3.938,199.686)" /></g></g><g
             id="g212"><g
               id="g214"><path
                 d="m 14.17339,-253.77591 c 0,7.82785 -6.34555,14.1734 -14.17339,14.1734 -7.82784,0 -14.17339,-6.34555 -14.17339,-14.1734 0,-7.82785 6.34555,-14.1734 14.17339,-14.1734 7.82784,0 14.17339,6.34555 14.17339,14.1734 z"
                 style="fill:none;stroke:#333333;stroke-width:0.79701;stroke-linecap:butt;stroke-linejoin:miter;stroke-miterlimit:10;stroke-dasharray:none;stroke-opacity:1"
                 id="path216" /></g><g
               id="g218"
               transform="translate(0,-253.772)"><g
                 id="g220" /><g
                 id="g222"
                 transform="translate(0,253.772)" /></g></g><g
             id="g224"><g
               id="g226"
               transform="translate(-3.917,-257.176)"><g
                 id="g228"><g
                   id="g230"
                   transform="translate(-91.958,-11.168)"><text
                     transform="matrix(1,0,0,-1,91.958,11.168)"
                     style="font-variant:normal;font-weight:normal;font-size:9.9626px;font-family:CMMI10;-inkscape-font-specification:CMMI10;writing-mode:lr-tb;fill:#000000;fill-opacity:1;fill-rule:nonzero;stroke:none"
                     id="text234"><tspan
                       x="0"
                       y="0"
                       id="tspan232">G</tspan></text><g
                     id="g236"
                     transform="translate(91.958,11.168)" /></g></g><g
                 id="g238"
                 transform="translate(3.917,257.176)" /></g></g><g
             id="g240"><g
               id="g242"><path
                 d="m -67.13066,-138.79468 c 0,7.82785 -6.34555,14.1734 -14.1734,14.1734 -7.82785,0 -14.1734,-6.34555 -14.1734,-14.1734 0,-7.82785 6.34555,-14.1734 14.1734,-14.1734 7.82785,0 14.1734,6.34555 14.1734,14.1734 z"
                 style="fill:none;stroke:#333333;stroke-width:0.79701;stroke-linecap:butt;stroke-linejoin:miter;stroke-miterlimit:10;stroke-dasharray:none;stroke-opacity:1"
                 id="path244" /></g><g
               id="g246"
               transform="translate(-81.303,-138.793)"><g
                 id="g248" /><g
                 id="g250"
                 transform="translate(81.303,138.793)" /></g></g><g
             id="g252"><g
               id="g254"
               transform="translate(-85.039,-142.196)"><g
                 id="g256"><g
                   id="g258"
                   transform="translate(-10.836,-126.148)"><text
                     transform="matrix(1,0,0,-1,10.836,126.148)"
                     style="font-variant:normal;font-weight:normal;font-size:9.9626px;font-family:CMMI10;-inkscape-font-specification:CMMI10;writing-mode:lr-tb;fill:#000000;fill-opacity:1;fill-rule:nonzero;stroke:none"
                     id="text262"><tspan
                       x="0"
                       y="0"
                       id="tspan260">A</tspan></text><g
                     id="g264"
                     transform="translate(10.836,126.148)" /></g></g><g
                 id="g266"
                 transform="translate(85.039,142.196)" /></g></g><g
             id="g268"><g
               id="g270"><path
                 d="m -67.13066,-196.2853 c 0,7.82786 -6.34555,14.1734 -14.1734,14.1734 -7.82785,0 -14.1734,-6.34554 -14.1734,-14.1734 0,-7.82784 6.34555,-14.1734 14.1734,-14.1734 7.82785,0 14.1734,6.34556 14.1734,14.1734 z"
                 style="fill:none;stroke:#333333;stroke-width:0.79701;stroke-linecap:butt;stroke-linejoin:miter;stroke-miterlimit:10;stroke-dasharray:none;stroke-opacity:1"
                 id="path272" /></g><g
               id="g274"
               transform="translate(-81.303,-196.282)"><g
                 id="g276" /><g
                 id="g278"
                 transform="translate(81.303,196.282)" /></g></g><g
             id="g280"><g
               id="g282"
               transform="translate(-85.332,-199.686)"><g
                 id="g284"><g
                   id="g286"
                   transform="translate(-10.543,-68.658)"><text
                     transform="matrix(1,0,0,-1,10.543,68.658)"
                     style="font-variant:normal;font-weight:normal;font-size:9.9626px;font-family:CMMI10;-inkscape-font-specification:CMMI10;writing-mode:lr-tb;fill:#000000;fill-opacity:1;fill-rule:nonzero;stroke:none"
                     id="text290"><tspan
                       x="0"
                       y="0"
                       id="tspan288">B</tspan></text><g
                     id="g292"
                     transform="translate(10.543,68.658)" /></g></g><g
                 id="g294"
                 transform="translate(85.332,199.686)" /></g></g><g
             id="g296"><g
               id="g298"><path
                 d="m -67.13066,-253.77591 c 0,7.82785 -6.34555,14.1734 -14.1734,14.1734 -7.82785,0 -14.1734,-6.34555 -14.1734,-14.1734 0,-7.82785 6.34555,-14.1734 14.1734,-14.1734 7.82785,0 14.1734,6.34555 14.1734,14.1734 z"
                 style="fill:none;stroke:#333333;stroke-width:0.79701;stroke-linecap:butt;stroke-linejoin:miter;stroke-miterlimit:10;stroke-dasharray:none;stroke-opacity:1"
                 id="path300" /></g><g
               id="g302"
               transform="translate(-81.303,-253.772)"><g
                 id="g304" /><g
                 id="g306"
                 transform="translate(81.303,253.772)" /></g></g><g
             id="g308"><g
               id="g310"
               transform="translate(-85.22,-257.176)"><g
                 id="g312"><g
                   id="g314"
                   transform="translate(-10.655,-11.168)"><text
                     transform="matrix(1,0,0,-1,10.655,11.168)"
                     style="font-variant:normal;font-weight:normal;font-size:9.9626px;font-family:CMMI10;-inkscape-font-specification:CMMI10;writing-mode:lr-tb;fill:#000000;fill-opacity:1;fill-rule:nonzero;stroke:none"
                     id="text318"><tspan
                       x="0"
                       y="0"
                       id="tspan316">C</tspan></text><g
                     id="g320"
                     transform="translate(10.655,11.168)" /></g></g><g
                 id="g322"
                 transform="translate(85.22,257.176)" /></g></g><g
             id="g324"><g
               id="g326"><path
                 d="M 0,-14.5719 V -38.25623"
                 style="fill:none;stroke:#000000;stroke-width:0.79701;stroke-linecap:butt;stroke-linejoin:miter;stroke-miterlimit:10;stroke-dasharray:none;stroke-opacity:1"
                 id="path328" /><g
                 id="g330"
                 transform="rotate(-90,-19.128115,-19.128115)"><g
                   id="g332"><path
                     d="M 4.66248,0 C 3.28098,0.25902 1.0361,1.0361 -0.51805,1.94269 V -1.94269 C 1.0361,-1.0361 3.28098,-0.25902 4.66248,0"
                     style="fill:#000000;fill-opacity:1;fill-rule:nonzero;stroke:none"
                     id="path334" /></g></g></g></g><g
             id="g336"><g
               id="g338"><path
                 d="M 30.34813,-87.83875 13.60077,-71.09137"
                 style="fill:none;stroke:#000000;stroke-width:0.79701;stroke-linecap:butt;stroke-linejoin:miter;stroke-miterlimit:10;stroke-dasharray:none;stroke-opacity:1"
                 id="path340" /><g
                 id="g342"
                 transform="matrix(-0.7071,0.7071,-0.7071,-0.7071,13.60078,-71.09138)"><g
                   id="g344"><path
                     d="M 4.66248,0 C 3.28098,0.25902 1.0361,1.0361 -0.51805,1.94269 V -1.94269 C 1.0361,-1.0361 3.28098,-0.25902 4.66248,0"
                     style="fill:#000000;fill-opacity:1;fill-rule:nonzero;stroke:none"
                     id="path346" /></g></g></g></g><g
             id="g348"><g
               id="g350"><path
                 d="M -10.3039,-67.79451 -27.05125,-84.54187"
                 style="fill:none;stroke:#000000;stroke-width:0.79701;stroke-linecap:butt;stroke-linejoin:miter;stroke-miterlimit:10;stroke-dasharray:none;stroke-opacity:1"
                 id="path352" /><g
                 id="g354"
                 transform="matrix(-0.7071,-0.7071,0.7071,-0.7071,-27.05124,-84.54185)"><g
                   id="g356"><path
                     d="M 4.66248,0 C 3.28098,0.25902 1.0361,1.0361 -0.51805,1.94269 V -1.94269 C 1.0361,-1.0361 3.28098,-0.25902 4.66248,0"
                     style="fill:#000000;fill-opacity:1;fill-rule:nonzero;stroke:none"
                     id="path358" /></g></g></g></g><g
             id="g360"><g
               id="g362"><path
                 d="M 50.95593,-108.44655 67.7033,-125.19391"
                 style="fill:none;stroke:#000000;stroke-width:0.79701;stroke-linecap:butt;stroke-linejoin:miter;stroke-miterlimit:10;stroke-dasharray:none;stroke-opacity:1"
                 id="path364" /><g
                 id="g366"
                 transform="matrix(0.7071,-0.7071,0.7071,0.7071,67.70328,-125.1939)"><g
                   id="g368"><path
                     d="M 4.66248,0 C 3.28098,0.25902 1.0361,1.0361 -0.51805,1.94269 V -1.94269 C 1.0361,-1.0361 3.28098,-0.25902 4.66248,0"
                     style="fill:#000000;fill-opacity:1;fill-rule:nonzero;stroke:none"
                     id="path370" /></g></g></g></g><g
             id="g372"><g
               id="g374"><path
                 d="M 30.34813,-108.44655 13.60077,-125.19391"
                 style="fill:none;stroke:#000000;stroke-width:0.79701;stroke-linecap:butt;stroke-linejoin:miter;stroke-miterlimit:10;stroke-dasharray:none;stroke-opacity:1"
                 id="path376" /><g
                 id="g378"
                 transform="matrix(-0.7071,-0.7071,0.7071,-0.7071,13.60078,-125.1939)"><g
                   id="g380"><path
                     d="M 4.66248,0 C 3.28098,0.25902 1.0361,1.0361 -0.51805,1.94269 V -1.94269 C 1.0361,-1.0361 3.28098,-0.25902 4.66248,0"
                     style="fill:#000000;fill-opacity:1;fill-rule:nonzero;stroke:none"
                     id="path382" /></g></g></g></g><g
             id="g384"><g
               id="g386"><path
                 d="m -30.34813,-108.44655 16.74736,-16.74736"
                 style="fill:none;stroke:#000000;stroke-width:0.79701;stroke-linecap:butt;stroke-linejoin:miter;stroke-miterlimit:10;stroke-dasharray:none;stroke-opacity:1"
                 id="path388" /><g
                 id="g390"
                 transform="matrix(0.7071,-0.7071,0.7071,0.7071,-13.60078,-125.1939)"><g
                   id="g392"><path
                     d="M 4.66248,0 C 3.28098,0.25902 1.0361,1.0361 -0.51805,1.94269 V -1.94269 C 1.0361,-1.0361 3.28098,-0.25902 4.66248,0"
                     style="fill:#000000;fill-opacity:1;fill-rule:nonzero;stroke:none"
                     id="path394" /></g></g></g></g><g
             id="g396"><g
               id="g398"><path
                 d="m 0,-153.36658 v -23.68434"
                 style="fill:none;stroke:#000000;stroke-width:0.79701;stroke-linecap:butt;stroke-linejoin:miter;stroke-miterlimit:10;stroke-dasharray:none;stroke-opacity:1"
                 id="path400" /><g
                 id="g402"
                 transform="rotate(-90,-88.52546,-88.52546)"><g
                   id="g404"><path
                     d="M 4.66248,0 C 3.28098,0.25902 1.0361,1.0361 -0.51805,1.94269 V -1.94269 C 1.0361,-1.0361 3.28098,-0.25902 4.66248,0"
                     style="fill:#000000;fill-opacity:1;fill-rule:nonzero;stroke:none"
                     id="path406" /></g></g></g></g><g
             id="g408"><g
               id="g410"><path
                 d="m 0,-210.8572 v -23.68433"
                 style="fill:none;stroke:#000000;stroke-width:0.79701;stroke-linecap:butt;stroke-linejoin:miter;stroke-miterlimit:10;stroke-dasharray:none;stroke-opacity:1"
                 id="path412" /><g
                 id="g414"
                 transform="rotate(-90,-117.27076,-117.27076)"><g
                   id="g416"><path
                     d="M 4.66248,0 C 3.28098,0.25902 1.0361,1.0361 -0.51805,1.94269 V -1.94269 C 1.0361,-1.0361 3.28098,-0.25902 4.66248,0"
                     style="fill:#000000;fill-opacity:1;fill-rule:nonzero;stroke:none"
                     id="path418" /></g></g></g></g><g
             id="g420"><g
               id="g422"><path
                 d="m -81.30406,-153.36658 v -23.68434"
                 style="fill:none;stroke:#000000;stroke-width:0.79701;stroke-linecap:butt;stroke-linejoin:miter;stroke-miterlimit:10;stroke-dasharray:none;stroke-opacity:1"
                 id="path424" /><g
                 id="g426"
                 transform="rotate(-90,-129.17749,-47.87343)"><g
                   id="g428"><path
                     d="M 4.66248,0 C 3.28098,0.25902 1.0361,1.0361 -0.51805,1.94269 V -1.94269 C 1.0361,-1.0361 3.28098,-0.25902 4.66248,0"
                     style="fill:#000000;fill-opacity:1;fill-rule:nonzero;stroke:none"
                     id="path430" /></g></g></g></g><g
             id="g432"><g
               id="g434"><path
                 d="M -14.5719,-196.2853 H -62.06969"
                 style="fill:none;stroke:#000000;stroke-width:0.79701;stroke-linecap:butt;stroke-linejoin:miter;stroke-miterlimit:10;stroke-dasharray:none;stroke-opacity:1"
                 id="path436" /><g
                 id="g438"
                 transform="rotate(180,-31.034845,-98.14265)"><g
                   id="g440"><path
                     d="M 4.66248,0 C 3.28098,0.25902 1.0361,1.0361 -0.51805,1.94269 V -1.94269 C 1.0361,-1.0361 3.28098,-0.25902 4.66248,0"
                     style="fill:#000000;fill-opacity:1;fill-rule:nonzero;stroke:none"
                     id="path442" /></g></g></g></g><g
             id="g444"><g
               id="g446"><path
                 d="m -81.30406,-210.8572 v -23.68433"
                 style="fill:none;stroke:#000000;stroke-width:0.79701;stroke-linecap:butt;stroke-linejoin:miter;stroke-miterlimit:10;stroke-dasharray:none;stroke-opacity:1"
                 id="path448" /><g
                 id="g450"
                 transform="rotate(-90,-157.92279,-76.618735)"><g
                   id="g452"><path
                     d="M 4.66248,0 C 3.28098,0.25902 1.0361,1.0361 -0.51805,1.94269 V -1.94269 C 1.0361,-1.0361 3.28098,-0.25902 4.66248,0"
                     style="fill:#000000;fill-opacity:1;fill-rule:nonzero;stroke:none"
                     id="path454" /></g></g></g></g></g></g></g></g></svg>
